<?xml version="1.0" standalone="no"?>
<!DOCTYPE svg PUBLIC "-//W3C//DTD SVG 20010904//EN"
 "http://www.w3.org/TR/2001/REC-SVG-20010904/DTD/svg10.dtd">
<svg version="1.0" xmlns="http://www.w3.org/2000/svg"
 width="700.000000pt" height="700.000000pt" viewBox="0 0 700.000000 700.000000"
 preserveAspectRatio="xMidYMid meet">
<metadata>
Created by potrace 1.14, written by Peter Selinger 2001-2017
</metadata>
<g transform="translate(0.000000,700.000000) scale(0.100000,-0.100000)"
fill="#000000" stroke="none">
<path d="M3278 6996 c-1 -2 -39 -6 -83 -10 -158 -12 -350 -43 -525 -86 -1011
-246 -1867 -939 -2321 -1877 -32 -68 -59 -125 -59 -127 0 -3 -11 -29 -24 -58
-51 -113 -131 -355 -162 -488 -40 -174 -66 -313 -79 -430 -27 -231 -27 -670 0
-831 2 -13 6 -46 9 -74 9 -78 23 -156 51 -285 65 -301 211 -679 370 -955 112
-195 325 -493 429 -601 239 -247 283 -288 459 -430 87 -71 260 -188 392 -266
369 -219 847 -385 1274 -444 25 -3 57 -8 71 -10 163 -25 682 -25 842 1 13 2
46 7 73 10 72 10 86 12 120 19 17 3 44 8 60 11 190 36 424 106 628 186 485
193 964 529 1306 918 31 35 63 71 71 80 13 14 67 82 92 116 4 6 18 24 31 40
88 112 212 309 298 475 50 95 76 150 137 290 56 128 148 420 178 565 17 81 54
301 59 350 4 33 9 71 11 85 9 46 11 524 4 605 -15 153 -21 210 -25 225 -2 8
-7 35 -10 60 -25 192 -108 491 -202 730 -207 527 -565 1024 -998 1385 -32 28
-70 59 -83 70 -120 102 -399 280 -596 379 -313 159 -718 291 -1016 331 -19 3
-46 7 -60 10 -13 2 -52 7 -86 11 -33 3 -74 8 -90 10 -32 5 -540 14 -546 10z
m542 -1959 c19 -3 66 -8 104 -12 38 -4 79 -8 90 -10 12 -2 41 -6 66 -9 201
-26 495 -107 705 -193 114 -47 331 -156 424 -213 l53 -33 434 0 c239 0 434 -4
434 -9 0 -6 -50 -90 -98 -164 -28 -43 -111 -223 -126 -273 -21 -72 -20 -87 8
-124 74 -99 153 -275 190 -423 30 -116 39 -188 39 -299 1 -184 -22 -313 -83
-467 -97 -246 -255 -454 -455 -600 -44 -32 -84 -62 -90 -66 -73 -57 -325 -158
-440 -177 -22 -3 -62 -10 -90 -15 -27 -5 -117 -7 -200 -5 -130 2 -167 7 -275
35 -69 17 -129 36 -135 41 -5 5 -15 9 -23 9 -25 0 -183 81 -262 133 -96 64
-180 136 -252 214 -40 43 -60 58 -66 50 -5 -7 -69 -101 -141 -209 l-132 -198
-135 203 c-75 111 -137 203 -139 205 -1 2 -49 -43 -106 -100 -136 -135 -286
-235 -451 -298 -66 -25 -219 -67 -275 -75 -23 -3 -57 -8 -75 -11 -44 -6 -247
-6 -278 0 -14 3 -41 8 -60 10 -130 17 -325 88 -465 170 -78 46 -203 147 -276
222 -191 199 -309 443 -356 739 -10 63 -9 293 1 365 24 169 93 354 186 502 55
88 57 93 47 132 -5 23 -14 45 -18 51 -5 5 -9 16 -9 23 0 25 -98 215 -159 308
l-58 89 416 5 416 5 67 42 c284 180 704 328 1108 392 172 27 200 30 320 37 58
4 107 8 109 10 6 6 466 -3 511 -9z"/>
<path d="M3229 4826 c-2 -2 -40 -7 -84 -10 -44 -4 -91 -9 -105 -11 -14 -2 -45
-7 -70 -10 -39 -5 -147 -23 -175 -29 -5 -2 -37 -8 -70 -15 -60 -13 -247 -64
-295 -81 -66 -23 -190 -73 -188 -75 2 -2 32 -5 68 -9 102 -8 199 -30 317 -70
305 -104 588 -354 736 -651 41 -83 103 -262 112 -323 3 -24 10 -53 15 -65 9
-22 9 -22 9 2 1 23 27 117 58 211 55 167 181 367 321 508 153 153 317 255 518
321 95 31 113 35 236 54 88 14 100 21 61 35 -15 6 -53 20 -83 32 -99 38 -307
101 -384 116 -11 2 -32 6 -46 9 -75 16 -228 40 -330 51 -58 7 -615 15 -621 10z"/>
<path d="M2065 4309 c-230 -22 -435 -121 -610 -294 -229 -226 -325 -473 -312
-795 10 -229 67 -389 204 -575 143 -195 365 -344 593 -396 25 -6 54 -13 65
-16 11 -3 84 -7 163 -8 147 -3 239 10 357 50 301 103 552 353 653 650 42 124
56 221 54 363 -1 82 -6 121 -28 231 -19 92 -85 240 -156 344 -52 78 -195 220
-271 270 -214 141 -455 201 -712 176z m305 -416 c213 -73 366 -239 424 -458
20 -75 16 -288 -7 -355 -121 -363 -496 -541 -857 -407 -135 50 -274 173 -343
304 -182 348 -19 775 348 912 31 12 73 24 93 27 21 3 39 8 42 11 3 3 52 3 110
0 82 -3 124 -11 190 -34z"/>
<path d="M2060 3687 c-189 -54 -319 -222 -320 -412 0 -231 211 -431 443 -418
167 8 329 130 384 286 25 72 24 215 -1 283 -40 107 -136 204 -243 244 -71 27
-199 35 -263 17z m187 -212 c138 -58 181 -250 77 -350 -113 -108 -285 -79
-356 59 -17 32 -19 53 -16 107 6 82 33 130 95 168 54 34 140 41 200 16z"/>
<path d="M4719 4306 c-2 -2 -26 -6 -54 -9 -27 -3 -60 -9 -72 -12 -13 -3 -33
-7 -45 -10 -288 -63 -574 -307 -699 -596 -65 -150 -91 -278 -90 -438 3 -311
168 -633 419 -819 195 -145 404 -212 647 -207 302 6 564 123 761 338 190 208
284 472 271 759 -9 203 -63 370 -172 533 -186 279 -494 448 -836 460 -69 3
-127 3 -130 1z m245 -396 c186 -47 357 -184 430 -345 53 -117 61 -153 60 -290
0 -115 -3 -139 -27 -203 -119 -329 -450 -508 -781 -422 -75 19 -175 66 -228
107 -52 40 -135 133 -166 186 -81 135 -109 303 -79 462 68 362 432 594 791
505z"/>
<path d="M4714 3690 c-93 -20 -191 -84 -256 -170 -65 -85 -93 -238 -64 -348
60 -227 292 -367 512 -308 194 51 315 212 316 416 1 176 -84 310 -241 382 -70
32 -190 45 -267 28z m179 -215 c67 -28 123 -104 130 -177 5 -45 -16 -112 -48
-154 -68 -89 -211 -105 -299 -33 -126 105 -96 308 55 368 37 15 123 13 162 -4z"/>
</g>
</svg>
